# xmcd
#
# Track frame offsets:
#	150
#	22875
#	41775
#
# Disc length: 849 seconds
#
# Revision: 1
# Processed by: cddbd v1.5.1PL0 Copyright (c) Steve Scherf et al.
# Submitted via: CDex 1.50Beta5
#
DISCID=1b034f03
DTITLE=くるり - ばらの花
DYEAR=1900
DGENRE=Rock
TTITLE0=ばらの花
TTITLE1=青写真
TTITLE2=イメージファイト
EXTD=
EXTT0=
EXTT1=
EXTT2=
PLAYORDER=
